<svg width="240" height="256" viewBox="0 0 240 256" fill="none" xmlns="http://www.w3.org/2000/svg">
<path d="M118.001 236C183.171 236 236.001 183.17 236.001 118C236.001 52.8304 183.171 0 118.001 0C52.8314 0 0.00100708 52.8304 0.00100708 118C0.00100708 183.17 52.8314 236 118.001 236Z" fill="#EEF3FF"/>
<path d="M153.001 30H28.001C23.0304 30 19.001 34.0294 19.001 39V195C19.001 199.971 23.0304 204 28.001 204H153.001C157.972 204 162.001 199.971 162.001 195V39C162.001 34.0294 157.972 30 153.001 30Z" fill="#925300"/>
<path d="M153.001 39H28.001V195H153.001V39Z" fill="white"/>
<path d="M91.001 40C97.0761 40 102.001 35.0751 102.001 29C102.001 22.9249 97.0761 18 91.001 18C84.9258 18 80.001 22.9249 80.001 29C80.001 35.0751 84.9258 40 91.001 40Z" fill="#C3CAC9"/>
<path d="M115.001 26H67.001C65.3441 26 64.001 27.3431 64.001 29V41C64.001 42.6569 65.3441 44 67.001 44H115.001C116.658 44 118.001 42.6569 118.001 41V29C118.001 27.3431 116.658 26 115.001 26Z" fill="#C3CAC9"/>
<path d="M64 58.999H44C41.7909 58.999 40 60.7899 40 62.999V82.999C40 85.2081 41.7909 86.999 44 86.999H64C66.2091 86.999 68 85.2081 68 82.999V62.999C68 60.7899 66.2091 58.999 64 58.999Z" fill="#FBC103"/>
<path d="M109 65.999H79C77.3431 65.999 76 67.3421 76 68.999C76 70.6559 77.3431 71.999 79 71.999H109C110.657 71.999 112 70.6559 112 68.999C112 67.3421 110.657 65.999 109 65.999Z" fill="#D1D1D1"/>
<path d="M138 75.999H79C77.3431 75.999 76 77.3421 76 78.999C76 80.6559 77.3431 81.999 79 81.999H138C139.657 81.999 141 80.6559 141 78.999C141 77.3421 139.657 75.999 138 75.999Z" fill="#D1D1D1"/>
<path d="M44.929 72.391L49.906 78.751L62.349 67.137" stroke="#707070" stroke-width="3" stroke-linecap="round" stroke-linejoin="round"/>
<path d="M64 97.5H44C42.067 97.5 40.5 99.067 40.5 101V118C40.5 119.933 42.067 121.5 44 121.5H64C65.933 121.5 67.5 119.933 67.5 118V101C67.5 99.067 65.933 97.5 64 97.5Z" stroke="#707070"/>
<path d="M109.5 103H78.5C77.1193 103 76 104.119 76 105.5C76 106.881 77.1193 108 78.5 108H109.5C110.881 108 112 106.881 112 105.5C112 104.119 110.881 103 109.5 103Z" fill="#D1D1D1"/>
<path d="M138 112H79C77.3431 112 76 113.343 76 115C76 116.657 77.3431 118 79 118H138C139.657 118 141 116.657 141 115C141 113.343 139.657 112 138 112Z" fill="#D1D1D1"/>
<path d="M74 133H43C41.3431 133 40 134.343 40 136C40 137.657 41.3431 139 43 139H74C75.6569 139 77 137.657 77 136C77 134.343 75.6569 133 74 133Z" fill="#D1D1D1"/>
<path d="M138 143H43C41.3431 143 40 144.343 40 146C40 147.657 41.3431 149 43 149H138C139.657 149 141 147.657 141 146C141 144.343 139.657 143 138 143Z" fill="#D1D1D1"/>
<path d="M137.5 154H43.5C41.567 154 40 155.567 40 157.5C40 159.433 41.567 161 43.5 161H137.5C139.433 161 141 159.433 141 157.5C141 155.567 139.433 154 137.5 154Z" fill="#D1D1D1"/>
<path d="M138.5 166H42.5C41.1193 166 40 167.119 40 168.5C40 169.881 41.1193 171 42.5 171H138.5C139.881 171 141 169.881 141 168.5C141 167.119 139.881 166 138.5 166Z" fill="#D1D1D1"/>
<path d="M137.326 54.0992L236.401 75.1744C236.401 75.1744 237.753 80.2614 236.881 84.3583C236.193 87.0576 234.828 89.537 232.915 91.5627L133.84 70.4875L137.326 54.0992Z" fill="#FFC400"/>
<path d="M135.944 60.6018L237.18 82.058C237.143 82.7564 237.059 83.4514 236.928 84.1383C236.731 85.0657 236.354 86.2319 236.354 86.2319L135.155 64.3113L135.944 60.6018Z" fill="#FFC400"/>
<path d="M137.433 54.0645L236.357 75.1208C236.357 75.1208 236.573 76.3753 236.688 77.7945C236.804 79.2137 236.817 80.7962 236.817 80.7962L136.401 58.9195L137.433 54.0645Z" fill="#FFE66A"/>
<path d="M134.77 66.1254L235.13 88.0435C235.13 88.0435 234.715 88.7732 234.157 89.7024C233.598 90.6317 232.918 91.5606 232.918 91.5606L133.843 70.4854L134.77 66.1254Z" fill="#DCA900"/>
<path d="M137.45 54.0953L133.962 70.4933L120.662 57.9342L137.45 54.0953Z" fill="#FEF0D6"/>
<path d="M126.202 56.7293L124.951 62.0392L120.657 57.9604L126.202 56.7293Z" fill="#6F6F6F"/>
<path d="M168.863 244.841H173.506L172.981 252.653H169.497L168.863 244.841Z" fill="#FFD2AB"/>
<path d="M208.541 238.393L212.652 236.301L215.617 242.374L212.376 244.003L208.541 238.393Z" fill="#FFD2AB"/>
<path d="M224.688 91.6008C225.172 89.9011 224.495 89.5458 224.88 88.3743C225.264 87.2027 226.006 85.8059 226.591 86.4008C227.177 86.9956 226.251 88.0443 226.84 89.7671C227.002 90.2365 228.678 90.5372 228.678 90.5372L230.975 91.0881C230.434 91.8042 229.751 92.4008 228.969 92.8406C227.705 93.53 228.129 93.6977 227.188 94.8794C225.103 97.5005 223.567 95.1445 223.969 93.7257C224.372 92.3069 224.204 93.2996 224.688 91.6008Z" fill="#FFD2AB"/>
<path d="M140.241 71.9023C140.446 71.1636 140.445 70.3832 140.24 69.6446C139.881 68.612 139.236 67.3416 138.795 67.7635C138.355 68.1854 139.463 70.4245 138.325 71.1009C137.873 71.3683 137.272 71.1735 136.441 71.001C135.45 70.7968 134.233 70.5082 134.233 70.5082C134.394 71.2838 134.712 72.0183 135.167 72.6663C136.012 74.0107 136.646 73.8232 137.629 75.85C138.613 77.8768 141.34 76.5636 140.708 75.2367C140.31 74.1728 140.151 73.0346 140.241 71.9023Z" fill="#FFD2AB"/>
<path d="M165.907 155.891L185.484 159.134L176.835 199.497L173.901 245.661C173.13 246.136 172.251 246.406 171.347 246.445C170.353 246.38 169.383 246.113 168.495 245.661C168.495 245.661 166.536 218.105 165.907 201.413C165.278 184.721 165.907 155.891 165.907 155.891Z" fill="#0F2438"/>
<path d="M176.608 161.884L193.86 156.644C193.86 156.644 196.66 190.128 198.097 196.074C199.534 202.02 214.314 237.697 214.314 237.697C213.779 238.45 213.162 239.142 212.475 239.759C211.435 240.659 209.088 240.58 209.088 240.58C209.088 240.58 189.251 205.206 188.008 203.461C186.765 201.716 181.118 186.912 179.177 178.595C177.945 173.089 177.086 167.506 176.608 161.884V161.884Z" fill="#173450"/>
<path d="M166.224 118.456C169.294 120.556 187.939 122.043 192.693 121.291C197.447 120.539 203.353 116.637 209.451 111.741C215.549 106.845 224.028 92.286 224.028 92.286C224.43 92.9263 225.009 93.4367 225.694 93.756C226.383 94.062 227.123 94.2373 227.876 94.273C227.876 94.273 220.246 112.045 212.876 119.495C205.506 126.945 196.837 130.686 195.938 133.595C195.039 136.504 196.03 151.42 193.594 157.511C191.158 163.602 167.9 165.641 166.224 159.856C164.548 154.071 163.324 138.416 161.399 133.598C159.474 128.78 153.899 121.485 149.507 115.398C145.115 109.311 136.744 75.73 136.744 75.73C137.51 75.9518 138.324 75.9518 139.09 75.73C139.764 75.4158 140.35 74.9396 140.796 74.344C140.796 74.344 148.821 97.367 154.285 105.628C159.749 113.889 163.154 116.363 166.224 118.456Z" fill="#00398E"/>
<path d="M163.844 132.754C165.291 137.486 166.309 142.339 166.886 147.254C167.904 155.702 168.044 159.386 169.306 160.59C170.568 161.794 171.8 163.474 177.437 163.101C183.074 162.728 184.007 162.501 185.837 162.093C187.251 161.721 188.628 161.218 189.95 160.593C189.95 160.593 191.828 159.906 193.05 156.105C193.65 154.236 193.681 152.13 194.059 147.905C194.437 143.68 194.515 134.263 195.292 132.322C195.742 131.198 200.847 128.21 205.643 124.522C207.527 123.06 209.563 121.551 211.216 120.002C212.344 118.945 213.544 117.853 214.251 117.132C218.106 113.195 227.876 94.271 227.876 94.271C227.876 94.271 220.246 112.043 212.876 119.493C205.506 126.943 196.837 130.684 195.938 133.593C195.039 136.502 196.03 151.418 193.594 157.509C191.158 163.6 167.901 165.637 166.225 159.851C164.549 154.065 163.325 138.411 161.4 133.593C159.475 128.775 153.9 121.48 149.508 115.393C145.116 109.306 136.744 75.73 136.744 75.73C138.406 78.9803 139.807 82.3576 140.934 85.83C144.026 95.43 147.781 109.33 151.262 114.594C156.725 122.851 161.761 127.487 163.844 132.754Z" fill="#042D6B"/>
<path d="M169.235 250.179C169.466 250.392 169.739 250.553 170.037 250.652C170.334 250.752 170.65 250.787 170.962 250.755C171.879 250.693 172.769 250.419 173.562 249.955C173.562 249.955 175.246 254.136 173.562 254.755C171.878 255.374 161.347 257.044 160.741 254.752C160.135 252.46 169.235 250.179 169.235 250.179Z" fill="#FBC103"/>
<path d="M211.436 242.836C211.734 242.936 212.05 242.972 212.363 242.942C212.675 242.911 212.978 242.815 213.251 242.658C214.063 242.228 214.765 241.616 215.301 240.87C215.301 240.87 218.54 244.004 217.253 245.255C215.966 246.505 207.02 252.312 205.537 250.471C204.054 248.63 211.436 242.836 211.436 242.836Z" fill="#FBC103"/>
<path d="M175.002 114.993L182.256 113.064C182.256 113.064 181.85 117.1 181.918 118.464C182.007 119.429 182.248 120.374 182.632 121.264C182.632 121.264 182.496 121.791 180.865 122.351C179.669 122.716 178.391 122.716 177.195 122.351C176.767 122.198 176.375 121.959 176.042 121.65C175.709 121.341 175.442 120.967 175.258 120.551C175.258 120.551 175.294 119.069 175.002 114.993Z" fill="#FFD2AB"/>
<path d="M174.888 114.551L182.256 113.064C182.256 113.064 182.198 111.387 182.476 113.683C182.576 114.5 181.386 115.707 179.602 116.883C178.587 117.59 177.502 118.191 176.364 118.676C175.288 118.998 175.206 118.375 175.206 118.375C175.206 118.375 175.116 116.456 175.068 115.962C175.062 115.486 175.001 115.013 174.888 114.551Z" fill="#F1B785"/>
<path d="M177.54 96.013C180.119 96.0228 182.589 97.0568 184.406 98.8875C186.223 100.718 187.239 103.196 187.229 105.775C187.229 111.167 180.913 116.975 175.647 116.651C170.381 116.327 167.489 111.167 167.489 105.775C167.561 103.159 168.653 100.674 170.53 98.8508C172.408 97.0274 174.923 96.0091 177.54 96.013Z" fill="#FFD2AB"/>
<path d="M169.567 95.85C169.567 95.85 165.719 91.497 162.943 96.923C160.167 102.349 165.277 103.547 167.043 103.737C169.562 103.849 172.085 103.637 174.55 103.106C176.516 102.63 179.912 103.232 179.66 104.368C179.408 105.504 179.345 107.586 180.228 108.532C181.111 109.478 182.373 107.523 182.373 107.523C182.464 107.274 182.642 107.067 182.874 106.939C183.106 106.811 183.376 106.772 183.635 106.829C184.518 107.081 184.329 109.289 183.635 109.857C182.689 110.717 182.066 111.875 181.869 113.138C181.774 114.061 181.774 114.991 181.869 115.914C182.058 116.797 183.888 116.293 185.717 115.157C187.546 114.021 188.69 110.012 188.69 110.012C188.69 110.012 190.978 107.873 191.017 103.112C191.056 98.351 185.717 96.361 185.717 96.361C185.717 96.361 184.475 93.512 179.156 92.576C173.837 91.64 169.567 95.85 169.567 95.85Z" fill="#0F2437"/>
<path d="M174.106 107.243C173.841 106.891 172.028 109.253 172.79 110.398C173.552 111.543 174.315 110.398 174.315 110.398C174.367 109.342 174.297 108.283 174.106 107.243Z" fill="#F1B785"/>
</svg>
